<?xml version="1.0" standalone="no"?><!DOCTYPE svg PUBLIC "-//W3C//DTD SVG 1.1//EN" "http://www.w3.org/Graphics/SVG/1.1/DTD/svg11.dtd"><svg t="1636091570909" class="icon" viewBox="0 0 1024 1024" version="1.1" xmlns="http://www.w3.org/2000/svg" p-id="13555" xmlns:xlink="http://www.w3.org/1999/xlink" width="32" height="32"><defs><style type="text/css"></style></defs><path d="M406.28224 373.328c23.124992-31.182 67.533824-38.711 67.533824-38.711-30.467072-22.581-147.454976 21.897-186.454016 96.777-37.7344 72.445-157.464576 127.965-157.464576 127.965 14.314496 56.999 69.368832 155.929 69.368832 155.929 22.020096-11.828 102.41024-106.46 138.089472-203.243C373.044224 415.264 382.88384 404.89 406.28224 373.328z" p-id="13556" fill="#1296db"></path><path d="M456.937472 441.439c19.088384-1.08 30.093312 12.54 33.77152 15.051 3.674112 2.508 11.010048 0 11.010048 0-1.473536-55.206-27.904-96.782-27.904-96.782-10.273792 0-80.743424 20.075-110.11072 134.77-36.943872 144.358-143.89248 246.616-143.89248 246.616 8.0896 10.965 21.2992 30.106 93.243392 77.427 71.938048 47.31 132.140032 40.858 132.140032 40.858s2.925568-52.326-1.478656-65.23c-4.400128-12.905-24.219648-30.107-71.201792-19.356-46.982144 10.758-43.318272 0-43.318272 0-8.810496-37.989 11.741184-86.744 19.088384-93.913 7.3472-7.164 15.425536-5.014 41.10848 2.873 25.698304 7.887 53.59616 9.323 47.72352-5.02-5.878784-14.342 0-39.428 0-39.428 16.147456 4.3 35.965952-2.15 30.834688-4.303-5.13536-2.151-8.809472-22.945-5.13536-21.508 3.673088 1.437 20.54656-0.719 15.420416-5.737-5.136384-5.02-8.810496-32.26 4.590592-35.846 13.402112-3.588 18.891776-18.64 18.891776-18.64-19.81952-7.881-19.083264-48.749-19.083264-48.749l-6.6048 0.357-2.210816 15.056c-9.920512 6.45-34.860032 5.014-41.097216 2.863-6.23616-2.146-17.631232-11.826-17.631232-11.826s18.362368-17.919 34.88256-18.279c19.830784-0.433 25.325568 8.603 25.325568 8.603l7.527424 0c1.661952-10.754 18.891776-35.845 18.891776-35.845-1.831936-1.793-6.028288-3.124-13.94688-5.375-29.334528-8.351-72.675328 5.375-72.675328 5.375C419.8656 459.721 437.849088 442.511 456.937472 441.439z" p-id="13557" fill="#1296db"></path><path d="M358.56896 270.823c97.641472-18.641 118.203392 19.355 124.066816 27.242 0 0 8.805376-35.129-93.237248-47.319-102.03648-12.188-118.182912-55.209-119.651328-65.242 0 0-58.723328 62.376-69.006336 72.413 0 0-9.541632 7.893-8.810496 12.906C191.930368 270.823 260.926464 289.466 358.56896 270.823z" p-id="13558" fill="#1296db"></path><path d="M471.983104 313.533c1.164288 0.638 1.83296 1.014 1.83296 1.014C473.355264 314.21 472.710144 313.872 471.983104 313.533z" p-id="13559" fill="#1296db"></path><path d="M291.762176 397.707c64.90112-99.2 162.276352-92.483 180.221952-84.174C462.170112 308.172 414.579712 283 385.724416 283c-32.292864 0-167.363584 37.997-202.614784 0 0 0-51.371008 98.936-54.319104 119.011-2.946048 20.078-10.271744 70.257 0 130.474C128.790528 532.485 224.229376 500.939 291.762176 397.707z" p-id="13560" fill="#1296db"></path><path d="M742.82496 433.188c-40.230912-74.88-160.98304-119.358-192.420864-96.777 0 0 45.83424 7.53 69.685248 38.711 24.15616 31.562 34.305024 41.935 71.148544 138.718 36.808704 96.781 119.77216 191.413 142.501888 203.243 0 0 56.834048-98.931 71.59808-155.929C905.337856 561.154 781.76768 505.636 742.82496 433.188z" p-id="13561" fill="#1296db"></path><path d="M664.027136 496.273c-30.302208-114.696-103.018496-134.771-113.62304-134.771 0 0-27.264 41.579-28.78976 96.783 0 0 7.560192 2.511 11.362304 0 3.795968-2.511 15.142912-16.131 34.839552-15.051 19.702784 1.071 38.267904 18.281 43.190272 24.017 0 0-44.74368-13.729-75.01312-5.378-8.165376 2.253-12.499968 3.582-14.385152 5.378 0 0 17.779712 25.088 19.483648 35.843l7.780352 0c0 0 5.675008-9.034 26.120192-8.604 17.048576 0.36 36.00384 18.278 36.00384 18.278s-11.747328 9.681-18.192384 11.827c-6.437888 2.15-32.181248 3.587-42.411008-2.863l-2.284544-15.056-6.807552-0.357c0 0 0.758784 40.867-19.69664 48.748 0 0 5.658624 15.052 19.483648 18.642 13.833216 3.581 10.048512 30.823 4.740096 35.843-5.295104 5.02 12.131328 7.174 15.911936 5.738 3.790848-1.435 0 19.355-5.303296 21.508-5.295104 2.152 15.1552 8.603 31.823872 4.303 0 0 6.060032 25.087 0 39.427-6.053888 14.344 22.735872 12.905 49.251328 5.021 26.51648-7.887 34.83648-10.038 42.412032-2.874 7.586816 7.173 28.79488 55.924 19.707904 93.914 0 0 3.77856 10.758-44.706816 0-48.492544-10.751-68.943872 6.451-73.47712 19.356-4.553728 12.904-1.52064 65.23-1.52064 65.23s62.117888 6.45 136.357888-40.859c74.25536-47.319 87.875584-66.461 96.222208-77.427C812.506112 742.888 702.150656 640.631 664.027136 496.273z" p-id="13562" fill="#1296db"></path><path d="M669.355008 272.616c100.755456 18.646 171.945984 0 171.945984 0 0.780288-5.013-9.070592-12.905-9.070592-12.905-10.614784-10.037-71.211008-72.413-71.211008-72.413-1.527808 10.033-18.188288 53.053-123.486208 65.241-105.310208 12.19-96.221184 47.32-96.221184 47.32C547.350528 291.972 568.572928 253.975 669.355008 272.616z" p-id="13563" fill="#1296db"></path><path d="M552.293376 315.329c-0.751616 0.336-1.41312 0.676-1.88928 1.012C550.404096 316.341 551.087104 315.968 552.293376 315.329z" p-id="13564" fill="#1296db"></path><path d="M906.4704 403.805c-3.039232-20.075-56.05888-119.01-56.05888-119.01-36.366336 37.996-175.758336 0-209.107968 0-29.76768 0-78.895104 25.177-89.010176 30.535 18.506752-8.309 119.005184-15.035 185.98912 84.172 69.701632 103.235 168.187904 134.778 168.187904 134.778C917.062656 474.063 909.508608 423.883 906.4704 403.805z" p-id="13565" fill="#1296db"></path></svg>